#!OML:ASF F:\VICON\USERDATA\INSTALL\rory3\rory3.ASF
:FULLY-SPECIFIED
:DEGREES
159
root 0.8402833035670321 17.802739358468195 39.48437543113983 1.826937171194907 0.6008187643584906 0.10463574853085933
lfemur -14.723930826476916 0.9390044025548178 -23.366218487926744
ltibia 49.58380498324442
lfoot 0.7824520572302918 -9.281428768321819
ltoes -6.378209034793823
rfemur -22.479034395672485 4.003852968270466 26.170880895918767
rtibia 56.0335009041058
rfoot -2.4847675515682472 -5.680905018872983
rtoes -0.7194353997730396
lowerback 12.600310315177866 0.33418816034200427 0.01964312300541371
upperback -0.7562126715843939 0.5836850424041076 1.0637315745800413
thorax -8.304995021023183 0.677117296968683 1.6408047471824276
lowerneck -19.927675690770737 -3.869397071758625 -1.9178680249994693
upperneck 10.445252860837245 -5.094750092552295 3.064204128069129
head 6.445334670819013 -2.2811584814375676 0.794523287722888
lclavicle 4.287488207731266e-15 5.75886165290891e-17
lhumerus -44.98117122899802 -12.518261070693685 96.17056669570272
lradius 109.8504574403383
lwrist 28.7075043673631
lhand -29.079854659732035 2.967901883695613
lfingers 7.125019999999998
lthumb -3.0520733131373103 32.385186760746905
rclavicle 4.28752700038245e-15 5.761646213958064e-17
rhumerus -45.181814531984486 14.375498674444728 -99.83423678120792
rradius 105.81448672669771
rwrist -9.476833365535516
rhand -20.427174802454676 36.44975274634222
rfingers 7.125019999999998
rthumb 6.09754774523791 6.472569667260572
160
root 0.9146688502270846 17.93288214670651 43.725115903729154 2.1794598157941034 1.2765741958157701 0.45996680610694796
lfemur -12.359680484530408 1.319597171829312 -22.720930721546395
ltibia 50.733510001772444
lfoot 2.109044201652044 -9.04662961949003
ltoes -6.174233328614476
rfemur -22.131536470094552 4.2876963581865475 26.3598037781969
rtibia 56.29536208608468
rfoot -3.676521354676871 -6.320268848659763
rtoes -0.4977259864771655
lowerback 12.651370063639467 0.2889668025643617 -0.07681718498662615
upperback -0.7504359023045832 0.5548741528608012 1.1693157243870813
thorax -8.369938715295342 0.5116483926074566 1.568261346568093
lowerneck -20.027236588228707 -3.9423399871763807 -1.9744799022957804
upperneck 10.4065852079454 -5.1209573575828395 3.058418481857749
head 6.442509502131485 -2.2889537419914956 0.790058235302185
lclavicle 4.287488207731266e-15 5.75886165290891e-17
lhumerus -46.03265663806648 -12.968411715205686 95.93295878872686
lradius 109.74628803063226
lwrist 28.68494940590616
lhand -29.281601444429548 2.8137176538733306
lfingers 7.125019999999998
lthumb -3.0509787238579866 32.45065572221615
rclavicle 4.28752700038245e-15 5.761646213958064e-17
rhumerus -45.582742495582146 14.266959644323387 -99.92973592179911
rradius 105.78850792810168
rwrist -9.631471834413292
rhand -20.433551200712788 36.44699903248107
rfingers 7.125019999999998
rthumb 6.080227082032977 6.426952883890288
161
root 0.8802275494139224 17.903004910670347 40.50428141344735 2.0443787303015952 0.6363617970776421 0.14495035198919481
lfemur -12.770263948683358 1.4382158286418008 -22.48502206282672
ltibia 51.522349408026116
lfoot 3.8208356261578373 -9.01803022590067
ltoes -6.158608345273068
rfemur -22.0041091859844 4.414374710861415 26.554847519251727
rtibia 56.8166303267376
rfoot -3.326403531388904 -6.420010127807045
rtoes -0.7399680525939549
lowerback 12.755935639805736 0.2843438994998826 -0.04720968443126883
upperback -0.7709095333671738 0.47434959411496425 1.239578181084
thorax -8.33853862545514 0.4490759118992007 1.610146658712947
lowerneck -19.997331084158503 -3.88155683141381 -1.9189759693714528
upperneck 10.425931618273346 -5.097657068310087 3.0721693875442657
head 6.432492417608138 -2.285782063360806 0.7947026590318548
lclavicle 4.287488207731266e-15 5.75886165290891e-17
lhumerus -45.9200395878087 -12.784324471876747 95.97665756242607
lradius 109.65693193845256
lwrist 28.740202654737278
lhand -29.37089351053444 2.8489403493498457
lfingers 7.125019999999998
lthumb -3.1406763884302737 32.40526995368397
rclavicle 4.28752700038245e-15 5.761646213958064e-17
rhumerus -46.028889511520156 14.18383272213285 -100.0214868585262
rradius 105.82452504523911
rwrist -9.638552840014803
rhand -20.435707557352945 36.39183836332394
rfingers 7.125019999999998
rthumb 6.006668748092758 6.331379114300296
162
root 0.9456377368114273 18.01232064852813 44.148832839761084 2.3567124167413134 1.2482089240964886 0.45927864000561414
lfemur -12.47322635400553 1.4182073435384634 -22.54176383380592
ltibia 52.27955416941094
lfoot 5.333601546970873 -9.692114175671117
ltoes -5.840578533987338
rfemur -22.56073021104676 4.4882995397637595 26.569606934072695
rtibia 57.48630841800882
rfoot -3.058270439373272 -6.062618030855785
rtoes -0.1425004570139341
lowerback 12.753956103151317 0.1946221804284558 -0.19952584334237855
upperback -0.7638132976039456 0.5260801500619319 1.360228267562509
thorax -8.31198305221537 0.41418579988563964 1.724915208581388
lowerneck -20.095620331439868 -3.93264447313537 -1.9388297192854498
upperneck 10.270348626621018 -5.137890922961133 3.040253945200654
head 6.410715576101042 -2.2890738036388436 0.7942560022378203
lclavicle 4.287488207731266e-15 5.75886165290891e-17
lhumerus -46.87903416256623 -12.9996419083118 95.95024415918829
lradius 109.78238260129545
lwrist 28.902842164626687
lhand -29.50148506235678 2.8354462820224664
lfingers 7.125019999999998
lthumb -3.135898843945127 32.56663544703141
rclavicle 4.28752700038245e-15 5.761646213958064e-17
rhumerus -46.29208181704147 14.167972584214821 -100.05722321344926
rradius 105.8855845745363
rwrist -9.40593435315809
rhand -20.388970480633287 36.422800702321474
rfingers 7.125019999999998
rthumb 6.014887742056869 6.300454735010126
163
root 0.9172366746734348 17.973133875129744 41.54406928241965 2.1952410412011067 0.7328896117087387 0.2828258009747011
lfemur -11.330976059751826 1.988595829086454 -21.88764554117977
ltibia 53.15333240039605
lfoot 6.518957508491766 -10.7533100748789
ltoes -5.3587145107609775
rfemur -22.560379365096768 4.4666766203534 26.223074207832013
rtibia 57.75778216571056
rfoot -2.5347859258767977 -5.607292665544201
rtoes 0.24425631332664977
lowerback 12.782635189160876 0.13906501621711365 -0.2455139386827765
upperback -0.7892544328118198 0.48912345925853207 1.4061672185742282
thorax -8.363820871114154 0.33066543854821384 1.5880745976828805
lowerneck -19.950106692603725 -3.8014532698154637 -1.8569327500937267
upperneck 10.22752130315798 -5.10595135326254 3.0549437342995795
head 6.393556397854126 -2.304124689184551 0.78346927471363
lclavicle 4.287488207731266e-15 5.75886165290891e-17
lhumerus -47.00339536204724 -12.922309823975482 96.12519732214733
lradius 110.00266698726868
lwrist 28.817096317930236
lhand -29.584325773033978 2.865315765103281
lfingers 7.125019999999998
lthumb -3.061111839724013 32.69645600707218
rclavicle 4.28752700038245e-15 5.761646213958064e-17
rhumerus -46.546385898909534 14.158044916205448 -100.06285612173875
rradius 105.97164572532611
rwrist -9.16111521270254
rhand -20.396919907840807 36.39555704212842
rfingers 7.125019999999998
rthumb 6.007916185918278 6.294310859984522
164
root 0.9924015751082258 18.087880638311592 45.70420574238626 2.503724836380442 1.4394412253073954 0.6594608489234819
lfemur -12.93419028350781 1.6396152511966173 -22.39319747786619
ltibia 54.29580127662156
lfoot 7.811758116841951 -10.898177010569771
ltoes -4.604492269782043
rfemur -20.156171127988504 5.005483197191657 27.5391940417582
rtibia 57.66683437400998
rfoot -1.6478708996926095 -5.1329208525348395
rtoes 1.1667713342228438
lowerback 12.797021470459136 0.06752843665646724 -0.3494087878778611
upperback -0.8212150991297673 0.3199493371576514 1.406480323024894
thorax -8.375248745941887 0.29111985863264456 1.4898399768501411
lowerneck -20.01681916641488 -3.816701574270582 -1.894297189893294
upperneck 10.080269862645391 -5.170184552759754 2.974367806198832
head 6.365535098304607 -2.3427413775576684 0.7605907797094343
lclavicle 4.287488207731266e-15 5.75886165290891e-17
lhumerus -47.30550750099145 -13.354010706181128 96.22908868200534
lradius 110.18124726974465
lwrist 28.835237894006795
lhand -29.71600271660328 2.820615372239431
lfingers 7.125019999999998
lthumb -3.107752314782323 32.7363083960908
rclavicle 4.28752700038245e-15 5.761646213958064e-17
rhumerus -46.65519540697321 14.147235196591334 -100.00329046946352
rradius 105.98094779961879
rwrist -9.113198977376749
rhand -20.317430892301562 36.46806401185399
rfingers 7.125019999999998
rthumb 5.910046936552087 6.182860083056198
165
root 0.9470812589228299 18.019722912999747 42.16877789816301 2.263275475565008 0.832447285149243 0.35560836593916934
lfemur -13.26918801254487 1.7786795497541843 -21.967600361796197
ltibia 55.66769330674352
lfoot 7.029854238232369 -11.441391944498562
ltoes -4.2019336498098525
rfemur -22.89135696128821 4.465693023154716 26.402440919325056
rtibia 57.430224440412005
rfoot -0.44494574531831643 -4.702058576894147
rtoes 1.348041191006196
lowerback 12.831355783439477 0.035201559924498804 -0.4154634100303549
upperback -0.8067721790486921 0.29238486931151786 1.452164239615069
thorax -8.387199174423223 0.30119407816637445 1.413454097257046
lowerneck -19.85331780359421 -3.693159121837914 -1.8310372476169823
upperneck 10.13144667924979 -5.156382898127928 2.9789280082780363
head 6.355334557398358 -2.366399420095357 0.7482707820196578
lclavicle 4.287488207731266e-15 5.75886165290891e-17
lhumerus -47.41950539827934 -13.426410450267696 96.2352171320321
lradius 110.46415775684449
lwrist 28.732252524758394
lhand -29.78654193984009 2.878155502476414
lfingers 7.125019999999998
lthumb -3.1559998353747543 32.67480424267189
rclavicle 4.28752700038245e-15 5.761646213958064e-17
rhumerus -46.776096214535315 14.093769341605233 -99.92037024323133
rradius 105.85469774761432
rwrist -9.189990548339066
rhand -20.34938535239104 36.38573285836366
rfingers 7.125019999999998
rthumb 5.928300727996162 6.194518045116885
166
root 0.9965769261267998 18.0927861834268 45.28095786591605 2.4573572330100397 1.350341456694634 0.6443097833377682
lfemur -12.984587761517265 1.8775285833529702 -21.711820379321193
ltibia 57.17269013049492
lfoot 5.5164541873406785 -11.906278049564145
ltoes -3.9390956742683465
rfemur -22.39536507930071 4.584143548687569 27.004648066078317
rtibia 56.694623192050415
rfoot -0.5320235329573293 -4.826565269124284
rtoes 1.490804728101802
lowerback 12.814651900532798 -0.0058886205951445 -0.5161630912145057
upperback -0.8050540447949873 0.266903321638291 1.4837637255022338
thorax -8.417025759481197 0.27197546021157426 1.2385045482650139
lowerneck -19.891875863607506 -3.731662889556085 -1.861977825657871
upperneck 9.98281339334858 -5.229970823744703 2.9088594169747384
head 6.387763641745695 -2.3508605226880257 0.7581600135444526
lclavicle 4.287488207731266e-15 5.75886165290891e-17
lhumerus -46.574616005042316 -13.428647436827365 96.48706132126745
lradius 110.3968245285615
lwrist 28.696962714901876
lhand -29.899030242206518 2.8705592573910117
lfingers 7.125019999999998
lthumb -3.199116461201233 32.62330089010199
rclavicle 4.28752700038245e-15 5.761646213958064e-17
rhumerus -46.96928578107027 13.9635241416968 -99.83251655994275
rradius 105.66091235387026
rwrist -9.342608687352564
rhand -20.327917715375385 36.39395233310195
rfingers 7.125019999999998
rthumb 6.013043642753763 6.244533254085996
